<?xml version="1.0" encoding="UTF-8"?>
<svg xmlns="http://www.w3.org/2000/svg" xmlns:xlink="http://www.w3.org/1999/xlink" width="60pt" height="60pt" viewBox="0 0 60 60" version="1.1">
<g id="surface1">
<path style=" stroke:none;fill-rule:evenodd;fill:rgb(60.392157%,65.490196%,69.019608%);fill-opacity:0.8;" d="M 33.75 43.214844 L 20.625 30 L 13.125 30 L 3.75 39.375 L 3.75 7.691406 C 3.75 7.585938 3.835938 7.5 3.941406 7.5 L 18.675781 7.5 C 21.0625 7.628906 23.332031 8.570312 25.113281 10.167969 L 29.945312 15 L 56.25 15 L 56.25 30 L 33.75 30 Z M 33.75 43.214844 "/>
<path style=" stroke:none;fill-rule:evenodd;fill:rgb(85.098039%,63.921569%,26.27451%);fill-opacity:1;" d="M 37.5 48.75 L 60 48.75 L 60 52.5 L 37.5 52.5 Z M 37.5 48.75 "/>
<path style=" stroke:none;fill-rule:evenodd;fill:rgb(85.098039%,63.921569%,26.27451%);fill-opacity:1;" d="M 37.5 56.25 L 60 56.25 L 60 60 L 37.5 60 Z M 37.5 56.25 "/>
<path style=" stroke:none;fill-rule:evenodd;fill:rgb(85.098039%,63.921569%,26.27451%);fill-opacity:1;" d="M 37.5 41.25 L 60 41.25 L 60 45 L 37.5 45 Z M 37.5 41.25 "/>
<path style=" stroke:none;fill-rule:evenodd;fill:rgb(85.098039%,63.921569%,26.27451%);fill-opacity:1;" d="M 37.5 33.75 L 60 33.75 L 60 37.5 L 37.5 37.5 Z M 37.5 33.75 "/>
<path style=" stroke:none;fill-rule:evenodd;fill:rgb(38.431373%,70.980392%,26.27451%);fill-opacity:1;" d="M 31.875 46.875 L 18.75 60 L 18.75 33.75 Z M 31.875 46.875 "/>
<path style=" stroke:none;fill-rule:evenodd;fill:rgb(94.901961%,39.607843%,13.333333%);fill-opacity:1;" d="M 1.875 46.875 L 15 33.75 L 15 60 Z M 1.875 46.875 "/>
</g>
</svg>
