<?xml version="1.0" encoding="UTF-8"?>
<svg xmlns="http://www.w3.org/2000/svg" width="10pt" height="10pt"
     viewBox="0 0 10 10" version="1.1">
    <g id="surface1">
        <path style=" stroke:none;fill-rule:evenodd;fill:rgb(60.392157%,65.490196%,69.019608%);fill-opacity:0.8;"
              d="M 5.625 7.203125 L 3.4375 5 L 2.1875 5 L 0.625 6.5625 L 0.625 1.28125 C 0.625 1.265625 0.640625 1.25 0.65625 1.25 L 3.113281 1.25 C 3.511719 1.269531 3.886719 1.429688 4.183594 1.695312 L 4.992188 2.5 L 9.375 2.5 L 9.375 5 L 5.625 5 Z M 5.625 7.203125 "/>
        <path style=" stroke:none;fill-rule:evenodd;fill:rgb(85.098039%,63.921569%,26.27451%);fill-opacity:1;"
              d="M 6.25 8.125 L 10 8.125 L 10 8.75 L 6.25 8.75 Z M 6.25 8.125 "/>
        <path style=" stroke:none;fill-rule:evenodd;fill:rgb(85.098039%,63.921569%,26.27451%);fill-opacity:1;"
              d="M 6.25 9.375 L 10 9.375 L 10 10 L 6.25 10 Z M 6.25 9.375 "/>
        <path style=" stroke:none;fill-rule:evenodd;fill:rgb(85.098039%,63.921569%,26.27451%);fill-opacity:1;"
              d="M 6.25 6.875 L 10 6.875 L 10 7.5 L 6.25 7.5 Z M 6.25 6.875 "/>
        <path style=" stroke:none;fill-rule:evenodd;fill:rgb(85.098039%,63.921569%,26.27451%);fill-opacity:1;"
              d="M 6.25 5.625 L 10 5.625 L 10 6.25 L 6.25 6.25 Z M 6.25 5.625 "/>
        <path style=" stroke:none;fill-rule:evenodd;fill:rgb(38.431373%,70.980392%,26.27451%);fill-opacity:1;"
              d="M 5.3125 7.8125 L 3.125 10 L 3.125 5.625 Z M 5.3125 7.8125 "/>
        <path style=" stroke:none;fill-rule:evenodd;fill:rgb(94.901961%,39.607843%,13.333333%);fill-opacity:1;"
              d="M 0.3125 7.8125 L 2.5 5.625 L 2.5 10 Z M 0.3125 7.8125 "/>
    </g>
</svg>
